<svg width="72" height="49" viewBox="0 0 72 49" fill="none" xmlns="http://www.w3.org/2000/svg">
<path d="M58.5881 25.5943C58.6064 28.2143 58.5871 30.8347 58.5509 33.4546C58.5132 36.1794 58.4565 38.9039 58.3806 41.628C58.3429 43.0027 58.2997 44.3772 58.2509 45.7514C58.2354 46.1873 58.9126 46.1867 58.9281 45.7514C59.0189 43.2061 59.091 40.6602 59.1445 38.1137C59.2046 35.3689 59.2446 32.6236 59.2646 29.8779C59.274 28.4501 59.2743 27.0222 59.2653 25.5943C59.2622 25.1587 58.585 25.1577 58.5881 25.5943Z" fill="#211715"/>
<path d="M55.82 37.0084C56.752 37.4028 57.6245 37.9251 58.4123 38.5603C58.4771 38.6215 58.5627 38.6556 58.6518 38.6556C58.7408 38.6556 58.8265 38.6215 58.8912 38.5603C58.9541 38.4965 58.9893 38.4105 58.9893 38.3209C58.9893 38.2313 58.9541 38.1453 58.8912 38.0815C58.0633 37.4044 57.1448 36.8463 56.1624 36.4236C56.0842 36.3812 55.9928 36.3701 55.9068 36.3927C55.8208 36.4152 55.7465 36.4697 55.6992 36.5451C55.6545 36.6227 55.6422 36.7149 55.6649 36.8016C55.6877 36.8884 55.7436 36.9626 55.8207 37.0084H55.82Z" fill="#211715"/>
<path d="M59.2201 34.8563C60.0404 33.5472 61.1214 32.421 62.3959 31.5479C62.4717 31.5011 62.5267 31.4268 62.5493 31.3406C62.5719 31.2543 62.5605 31.1627 62.5173 31.0846C62.4714 31.0077 62.3972 30.9519 62.3105 30.9291C62.2239 30.9064 62.1318 30.9186 62.054 30.9631C60.6823 31.8991 59.5185 33.1081 58.6353 34.5144C58.4041 34.8853 58.9897 35.2256 59.2201 34.8563Z" fill="#211715"/>
<path d="M60.33 18.3116C60.3466 19.6545 60.7369 20.9662 61.4571 22.0998C62.0222 22.98 62.8821 23.697 63.9992 23.936C64.4881 24.0591 65.0041 24.0155 65.4654 23.8122C65.9268 23.575 66.2871 23.1792 66.4799 22.6976C66.6453 22.2661 66.6975 21.7995 66.6316 21.3421C66.4502 19.8422 65.4273 18.4367 64.2304 17.596C63.7895 17.2889 63.3078 17.0449 62.7993 16.8711L60.33 18.3116Z" fill="#FFDA71"/>
<path d="M57.2181 7.74141C57.2016 6.3986 56.8115 5.08691 56.0917 3.95323C55.5265 3.07299 54.6667 2.35598 53.5496 2.11698C53.0606 1.9939 52.5446 2.03749 52.0832 2.24085C51.6219 2.47805 51.2616 2.87384 51.0687 3.35544C50.9031 3.78696 50.8507 4.25366 50.9165 4.71115C51.0972 6.21118 52.1206 7.61669 53.3175 8.45743C53.7585 8.7646 54.2402 9.0086 54.7488 9.18233L57.2181 7.74141Z" fill="#FFDA71"/>
<path d="M52.7252 38.4335C53.1228 38.4466 53.5198 38.3936 53.9 38.2766C54.3141 38.1533 54.6971 37.9433 55.0238 37.6605C55.1699 37.5075 55.3077 37.3467 55.4367 37.179C55.8494 36.7236 56.1082 35.9294 56.0595 35.4088C55.9942 35.0168 55.8644 34.6384 55.6753 34.289C55.5514 34.0766 55.3976 33.8833 55.2185 33.7149C54.8757 33.3591 54.4769 33.0619 54.038 32.8352C53.1574 32.3736 52.1559 32.1949 51.17 32.3233C49.2345 32.5914 47.5612 33.9927 46.6975 35.7451C47.7238 36.1699 48.6418 36.813 49.6039 37.3676C50.566 37.9222 51.6151 38.3969 52.7252 38.4335Z" fill="#6DBF6B"/>
<path d="M65.3867 32.6957C64.7618 32.7783 64.1262 32.6899 63.5475 32.4401C63.1654 32.273 62.8275 32.019 62.5611 31.6981C62.2779 31.3894 62.0581 31.0281 61.9143 30.6347C61.8233 30.2306 61.8164 29.8121 61.8939 29.4052C61.9939 28.9565 62.2013 28.5388 62.4983 28.1879C62.8096 27.8076 63.1806 27.4804 63.5968 27.2192C64.4222 26.694 65.3876 26.4317 66.3653 26.4672C68.3173 26.5531 70.1141 27.7927 71.1377 29.4569C70.1556 29.9756 69.3015 30.7015 68.3946 31.3428C67.4877 31.9842 66.4886 32.5558 65.3867 32.6957Z" fill="#6DBF6B"/>
<path d="M56.9513 18.225C56.1807 19.3249 55.7316 20.6177 55.6543 21.9584C55.599 23.0032 55.8781 24.0869 56.6459 24.9335C56.971 25.3189 57.4153 25.5848 57.9086 25.689C58.4218 25.7658 58.9455 25.6547 59.3832 25.3761C59.7694 25.1224 60.0843 24.774 60.2978 24.3642C61.0262 23.0407 61.0164 21.3026 60.5356 19.921C60.3569 19.4142 60.1083 18.9348 59.7969 18.4969L56.9513 18.225Z" fill="#FFDA71"/>
<path d="M60.5966 7.82679C61.3671 6.72683 61.8161 5.43408 61.8933 4.09335C61.9485 3.0493 61.6696 1.96491 60.9016 1.11824C60.5765 0.732863 60.1322 0.46698 59.6389 0.362724C59.1257 0.285901 58.602 0.396976 58.1642 0.675514C57.7781 0.929232 57.4633 1.27758 57.2499 1.68739C56.5214 3.01093 56.531 4.74898 57.0118 6.13064C57.1905 6.6375 57.4392 7.11689 57.7506 7.55492L60.5966 7.82679Z" fill="#FFDA71"/>
<path d="M54.2259 16.1351C52.9538 16.565 51.8265 17.3406 50.9703 18.375C50.3072 19.1839 49.8899 20.2223 50.007 21.3593C50.0406 21.8624 50.2412 22.3398 50.5769 22.716C50.9448 23.0819 51.4326 23.3026 51.9503 23.3375C52.4117 23.3617 52.8717 23.2676 53.2864 23.0639C54.6574 22.429 55.6791 21.0228 56.1101 19.6251C56.2663 19.1109 56.35 18.5774 56.3586 18.0401L54.2259 16.1351Z" fill="#FFDA71"/>
<path d="M63.3219 9.91631C64.5943 9.48656 65.7219 8.71095 66.5782 7.67641C67.2413 6.86756 67.6587 5.82916 67.5415 4.69214C67.508 4.18906 67.3074 3.7116 66.9717 3.33544C66.6037 2.96982 66.116 2.74938 65.5984 2.71466C65.1369 2.69045 64.6769 2.78462 64.2621 2.98823C62.8913 3.62312 61.8694 5.02933 61.4384 6.42708C61.2822 6.94125 61.1986 7.47474 61.1901 8.01205L63.3219 9.91631Z" fill="#FFDA71"/>
<path d="M53.2681 12.8268C51.9891 12.4171 50.6212 12.3716 49.3177 12.6955C48.3036 12.9525 47.3518 13.5403 46.7708 14.5247C46.4991 14.9496 46.3769 15.453 46.4237 15.9551C46.5025 16.468 46.7639 16.9352 47.1598 17.2706C47.5166 17.5642 47.9426 17.7616 48.3972 17.844C49.8774 18.1472 51.5346 17.6225 52.7113 16.7537C53.1423 16.4328 53.5264 16.0532 53.8524 15.6259L53.2681 12.8268Z" fill="#FFDA71"/>
<path d="M64.2798 13.2251C65.5588 13.6348 66.9267 13.6802 68.2302 13.3564C69.2442 13.0994 70.1965 12.5116 70.7774 11.5272C71.049 11.1024 71.1712 10.5992 71.1245 10.0972C71.0457 9.58428 70.7843 9.11711 70.3884 8.78167C70.0316 8.48807 69.6056 8.29067 69.1509 8.20829C67.6708 7.90523 66.0137 8.4298 64.8369 9.29861C64.4059 9.61955 64.0219 9.99917 63.696 10.4265L64.2798 13.2251Z" fill="#FFDA71"/>
<path d="M54.4405 9.62288C53.6481 8.53859 52.5694 7.69636 51.3253 7.19054C50.3543 6.80114 49.2386 6.7155 48.1893 7.16909C47.7197 7.35233 47.3246 7.68715 47.0669 8.12044C46.8285 8.58137 46.7648 9.11287 46.8873 9.6171C47.0029 10.0645 47.2312 10.4749 47.5504 10.8091C48.568 11.9258 50.2169 12.4776 51.679 12.4685C52.2164 12.4628 52.7503 12.382 53.2654 12.2286L54.4405 9.62288Z" fill="#FFDA71"/>
<path d="M63.1069 16.4288C63.8993 17.5132 64.9779 18.3555 66.222 18.8615C67.1929 19.2509 68.3088 19.3366 69.3579 18.883C69.8276 18.6997 70.2227 18.3649 70.4805 17.9316C70.7188 17.4707 70.7826 16.9392 70.6603 16.435C70.5445 15.9876 70.3163 15.5772 69.9972 15.2429C68.9794 14.1262 67.3306 13.5744 65.8684 13.5837C65.3311 13.5893 64.7971 13.6701 64.2822 13.8236L63.1069 16.4288Z" fill="#FFDA71"/>
<path d="M59.1181 6.8023C55.4692 6.59815 52.7887 9.28318 52.6036 12.5903C52.3964 16.2905 54.8303 18.9829 58.4254 19.1841C62.1585 19.3932 64.7404 16.9575 64.9467 13.2812C65.1331 9.95151 62.7543 7.00589 59.1181 6.8023Z" fill="#F4B467"/>
<path d="M52.725 38.7719C53.42 38.7938 54.1081 38.6281 54.717 38.2922C54.9911 38.1443 55.2357 37.9473 55.4386 37.7111C55.6349 37.4914 55.8141 37.257 55.9748 37.0102C56.2639 36.5416 56.4118 35.9997 56.4009 35.4493C56.3742 35.1511 56.2993 34.8592 56.1791 34.585C56.0744 34.3018 55.9286 34.0356 55.7464 33.7949C54.8908 32.7671 53.6676 32.1141 52.3376 31.9749C51.1463 31.86 49.9506 32.1441 48.9383 32.7826C47.8504 33.4591 46.973 34.4259 46.4047 35.574C46.3799 35.6191 46.3655 35.6692 46.3626 35.7205C46.3596 35.7719 46.3681 35.8232 46.3875 35.8709C46.4068 35.9185 46.4366 35.9612 46.4746 35.9959C46.5126 36.0306 46.5578 36.0564 46.607 36.0714C47.645 36.5062 48.5666 37.1704 49.5426 37.7221C50.5243 38.2763 51.5844 38.7263 52.725 38.7725C53.1608 38.7901 53.16 38.1128 52.725 38.0953C51.6421 38.0514 50.6417 37.5775 49.7198 37.0429C48.7507 36.4809 47.8246 35.8535 46.7873 35.419L46.9897 35.9164C47.8537 34.1811 49.568 32.7224 51.5689 32.6253C52.7261 32.5673 53.8609 32.9593 54.7355 33.7193C54.9496 33.8984 55.141 34.1031 55.3053 34.3288C55.4318 34.5301 55.5327 34.7463 55.6057 34.9726C55.758 35.3962 55.7479 35.8612 55.5775 36.2779C55.4956 36.5127 55.3722 36.7309 55.2133 36.9221C55.0372 37.1627 54.8308 37.3795 54.5992 37.5673C54.0464 37.9374 53.3903 38.1223 52.7255 38.0953C52.289 38.0843 52.2892 38.7615 52.725 38.7719Z" fill="#211715"/>
<path d="M63.9083 30.6271C64.1985 30.4589 64.5072 30.325 64.8283 30.2281C65.1762 30.1165 65.5324 30.0326 65.8935 29.9772C65.98 29.9531 66.0534 29.8957 66.0977 29.8176C66.142 29.7396 66.1536 29.6472 66.13 29.5606C66.1039 29.4754 66.0462 29.4035 65.9688 29.3596C65.8913 29.3156 65.8 29.3029 65.7135 29.3241C64.96 29.4304 64.2323 29.6738 63.5665 30.0423C63.4889 30.0876 63.4325 30.1619 63.4098 30.2488C63.387 30.3357 63.3996 30.428 63.445 30.5056C63.4903 30.5831 63.5646 30.6395 63.6515 30.6623C63.7384 30.6851 63.8308 30.6724 63.9083 30.6271Z" fill="#211715"/>
<path d="M65.3865 32.3567C64.8217 32.4347 64.2462 32.3625 63.7182 32.1474C63.2549 31.9346 62.8598 31.5972 62.577 31.173C62.421 30.9712 62.3027 30.7429 62.2279 30.499C62.1804 30.2808 62.1661 30.0566 62.1855 29.8341C62.2155 29.297 62.4234 28.7852 62.7765 28.3795C63.5033 27.5238 64.5245 26.9716 65.6385 26.832C66.6263 26.728 67.6224 26.9284 68.4931 27.4064C69.4586 27.9273 70.2699 28.6933 70.8453 29.6274L70.9668 29.1641C69.9744 29.6936 69.1147 30.4224 68.1988 31.0675C67.359 31.6589 66.4231 32.2175 65.3865 32.3567C65.2976 32.3596 65.2133 32.3962 65.1504 32.4591C65.0875 32.522 65.0509 32.6064 65.048 32.6953C65.048 32.8594 65.2042 33.0585 65.3866 33.0339C66.5132 32.8826 67.5162 32.3625 68.4412 31.7218C69.3954 31.0608 70.2801 30.2977 71.3086 29.749C71.3855 29.703 71.4412 29.6288 71.4639 29.5421C71.4866 29.4555 71.4745 29.3635 71.4301 29.2857C70.2498 27.3845 68.0636 25.9353 65.7584 26.1424C64.4727 26.2518 63.2742 26.8376 62.398 27.7849C61.9459 28.255 61.6469 28.8511 61.5405 29.4946C61.462 30.0837 61.5006 30.6617 61.7874 31.1909C62.1122 31.8096 62.611 32.3197 63.2222 32.6582C63.8903 32.9956 64.6439 33.1264 65.3866 33.0339C65.4756 33.0313 65.5601 32.9948 65.623 32.9319C65.686 32.8689 65.7225 32.7843 65.7251 32.6953C65.7246 32.6057 65.6887 32.5199 65.6253 32.4565C65.5619 32.3931 65.4761 32.3573 65.3865 32.3567Z" fill="#211715"/>
<path d="M60.0354 19.0371C60.0553 19.2003 60.0777 19.3634 60.1051 19.5255C60.1185 19.6027 60.133 19.6795 60.1488 19.7561C60.167 19.8443 60.1845 19.9013 60.1938 19.9413C60.257 20.2231 60.3375 20.5007 60.4347 20.7726C60.6372 21.3467 60.9113 21.8928 61.2506 22.3982C61.8314 23.2784 62.7067 23.923 63.7196 24.2163C64.2882 24.3689 64.9146 24.4039 65.4691 24.177C65.9918 23.9577 66.4214 23.5625 66.6834 23.0598C67.2478 21.9858 66.9693 20.6754 66.4494 19.6418C65.8399 18.4506 64.8703 17.482 63.6785 16.8738C63.291 16.6763 62.9479 17.2605 63.3367 17.4586C64.2584 17.9253 65.0375 18.6314 65.5923 19.503C66.0948 20.2974 66.4918 21.3484 66.2554 22.2965C66.1503 22.7408 65.8862 23.1313 65.5128 23.3942C65.3069 23.5221 65.0774 23.6076 64.8379 23.6455C64.5984 23.6834 64.3537 23.673 64.1183 23.615C63.2535 23.4274 62.4856 22.9334 61.9564 22.2241C61.6183 21.7706 61.3452 21.2719 61.1452 20.7427C61.035 20.4588 60.9544 20.1696 60.8709 19.8773C60.8531 19.8151 60.8826 19.8038 60.8603 19.8529C60.8677 19.9093 60.8677 19.9081 60.8603 19.8493C60.8581 19.8231 60.8534 19.7971 60.8462 19.7717C60.8287 19.6841 60.8069 19.5975 60.7898 19.5097C60.759 19.353 60.7334 19.1953 60.7137 19.0365C60.7111 18.9476 60.6746 18.863 60.6116 18.8001C60.5487 18.7371 60.4641 18.7006 60.3751 18.6979C60.2855 18.6984 60.1996 18.7342 60.1362 18.7976C60.0728 18.861 60.037 18.9469 60.0365 19.0365L60.0354 19.0371Z" fill="#211715"/>
<path d="M57.5086 6.97869C57.4457 6.39858 57.3131 5.82818 57.1135 5.27987C56.9113 4.7057 56.6372 4.15944 56.2978 3.65412C55.7115 2.766 54.8255 2.11828 53.8014 1.82916C53.2268 1.65757 52.6119 1.67818 52.05 1.88785C51.5224 2.11558 51.0935 2.52426 50.8405 3.04025C50.3062 4.11858 50.5894 5.40995 51.1114 6.43636C51.7259 7.62361 52.6989 8.58704 53.8922 9.18981C54.2805 9.38564 54.6245 8.80154 54.2341 8.60515C53.3203 8.14754 52.5449 7.45493 51.9874 6.59847C51.4729 5.80274 51.06 4.74585 51.2861 3.78717C51.3848 3.34002 51.6432 2.94421 52.0128 2.67385C52.2163 2.54202 52.4443 2.45264 52.6831 2.41106C52.922 2.36948 53.1667 2.37657 53.4028 2.43188C54.2758 2.6144 55.0523 3.10869 55.5872 3.8223C55.9282 4.27705 56.2031 4.77774 56.4037 5.30949C56.5138 5.59336 56.5945 5.88273 56.6778 6.17492C56.6956 6.23714 56.6661 6.24843 56.6886 6.19947C56.6811 6.14304 56.6811 6.14421 56.6886 6.203C56.6905 6.22878 56.695 6.2543 56.702 6.27919C56.7186 6.36285 56.7396 6.44581 56.7563 6.52976C56.7859 6.6786 56.8115 6.82844 56.8306 6.97912C56.8334 7.06805 56.87 7.15258 56.9329 7.2155C56.9958 7.27841 57.0803 7.31497 57.1692 7.31773C57.2589 7.31721 57.3447 7.28137 57.4081 7.21798C57.4715 7.15459 57.5073 7.06876 57.5079 6.97912L57.5086 6.97869Z" fill="#211715"/>
<path d="M56.2791 18.6587C55.1737 20.6386 54.7572 23.4495 56.4607 25.2314C56.8548 25.6662 57.3875 25.951 57.968 26.0373C58.5629 26.1018 59.1609 25.9478 59.6508 25.6042C60.5977 24.9388 61.0343 23.7657 61.1697 22.6554C61.2444 22.0022 61.2179 21.3414 61.0913 20.6963C61.064 20.5525 61.0318 20.4097 60.9948 20.2678C60.9728 20.1832 60.9488 20.0992 60.923 20.016C60.9103 19.9754 60.899 19.9313 60.883 19.8924C60.8582 19.8319 60.8418 19.8266 60.8644 19.8945C60.8029 19.7093 60.7487 19.5277 60.6689 19.346C60.6033 19.1967 60.5306 19.0512 60.4527 18.9086C60.2445 18.5257 59.6595 18.8671 59.8679 19.2504C59.9873 19.47 60.0732 19.6991 60.1776 19.9246C60.1787 19.927 60.1545 19.8314 60.1933 19.9415C60.1983 19.9556 60.2038 19.9923 60.2091 20.012C60.2288 20.0847 60.2574 20.1558 60.2796 20.2279C60.3219 20.3643 60.3566 20.5023 60.3885 20.6413C60.4957 21.1094 60.5447 21.5891 60.5344 22.0692C60.5154 22.9969 60.2706 24.0418 59.6213 24.7396C59.3022 25.0952 58.8629 25.3203 58.3879 25.3715C58.1556 25.3885 57.9222 25.3572 57.7026 25.2794C57.483 25.2017 57.2819 25.0794 57.1119 24.92C56.3996 24.2851 56.0279 23.3423 55.99 22.4005C55.9675 21.2088 56.2695 20.0335 56.8637 19.0003C57.0765 18.6194 56.4917 18.2775 56.2789 18.6584L56.2791 18.6587Z" fill="#211715"/>
<path d="M61.2927 7.35324C62.379 5.36857 62.7837 2.57039 61.0691 0.802146C60.6773 0.376808 60.1515 0.0986813 59.5795 0.0141753C58.9846 -0.0497841 58.3867 0.104105 57.8967 0.447312C56.9571 1.10619 56.5214 2.26733 56.3814 3.36654C56.3048 4.00985 56.3265 4.66108 56.4456 5.29788C56.471 5.43897 56.5021 5.58006 56.5363 5.71945C56.5574 5.8041 56.5805 5.88875 56.6055 5.97341C56.6179 6.01573 56.6309 6.05651 56.6441 6.09785L56.6645 6.15936C56.6825 6.23174 56.689 6.24147 56.6842 6.18899L56.6831 6.15738L56.6951 6.2474C56.7105 6.29905 56.7294 6.34963 56.7515 6.39878C56.7848 6.48457 56.8204 6.56964 56.8569 6.65415C56.9229 6.80723 56.9956 6.95692 57.0737 7.10422C57.2782 7.48939 57.863 7.14753 57.6586 6.76237C57.4254 6.33577 57.2563 5.87723 57.1566 5.40144C57.049 4.92674 57.0012 4.44045 57.0144 3.95389C57.0379 3.02666 57.289 1.98375 57.9455 1.29285C58.2628 0.948555 58.6943 0.731211 59.1599 0.681234C59.3922 0.663923 59.6257 0.695119 59.8453 0.772842C60.065 0.850565 60.2661 0.973116 60.4359 1.13271C60.7777 1.45356 61.0526 1.83884 61.245 2.26638C61.4373 2.69392 61.5432 3.15527 61.5565 3.62389C61.6101 4.79336 61.2661 5.99189 60.7079 7.01152C60.4985 7.39401 61.0832 7.73601 61.2927 7.35324Z" fill="#211715"/>
<path d="M53.3365 16.1259C51.2654 17.0981 49.3162 19.1542 49.7006 21.6064C49.7762 22.1872 50.0606 22.7207 50.5006 23.1072C50.9545 23.4771 51.5217 23.6799 52.1073 23.6817C53.258 23.686 54.3373 22.9537 55.0769 22.1234C55.4871 21.6636 55.8292 21.1474 56.0927 20.5905C56.2272 20.3072 56.3418 20.0149 56.4354 19.7157C56.5511 19.3991 56.6213 19.0676 56.6437 18.7312C56.6437 18.2954 55.9665 18.2947 55.9665 18.7312C55.9665 18.653 55.9576 18.7861 55.9535 18.8113C55.9423 18.8794 55.9298 18.9474 55.9161 19.0149C55.8869 19.1585 55.8518 19.3006 55.8108 19.4413C55.7486 19.6572 55.6735 19.8693 55.5859 20.0762C55.3948 20.5212 55.1508 20.9417 54.8591 21.3283C54.2971 22.0734 53.4895 22.7492 52.5605 22.9559C52.0946 23.0631 51.6056 22.9945 51.1873 22.7632C50.9863 22.6455 50.8124 22.4868 50.6767 22.2974C50.5411 22.1081 50.4469 21.8923 50.4002 21.6641C50.1661 20.6929 50.469 19.6641 51.025 18.8595C51.674 17.9197 52.6526 17.1915 53.6782 16.7104C53.7551 16.6646 53.811 16.5903 53.8337 16.5036C53.8565 16.4169 53.8442 16.3248 53.7996 16.2471C53.7529 16.1711 53.6787 16.116 53.5924 16.0934C53.506 16.0707 53.4143 16.0823 53.3363 16.1256L53.3365 16.1259Z" fill="#211715"/>
<path d="M64.2029 9.93036C66.2751 8.96222 68.2097 6.91999 67.8511 4.47227C67.7821 3.90072 67.5124 3.37223 67.0901 2.98098C66.6382 2.59541 66.0659 2.37956 65.4719 2.37064C64.3291 2.35075 63.2501 3.07142 62.508 3.88817C62.0873 4.35122 61.7365 4.87325 61.4668 5.43773C61.3346 5.71273 61.2215 5.99646 61.1282 6.28693C61.0077 6.60578 60.9342 6.94047 60.91 7.28047C60.91 7.71614 61.5873 7.71685 61.5873 7.28047C61.5873 7.35595 61.598 7.2198 61.6021 7.19582C61.6142 7.12584 61.6277 7.05614 61.6427 6.98672C61.6743 6.83924 61.7119 6.69345 61.7556 6.54936C61.8185 6.33745 61.8946 6.12969 61.9836 5.9273C62.1788 5.48339 62.4269 5.06463 62.7224 4.68009C63.2907 3.94813 64.091 3.28446 65.0168 3.08934C65.4837 2.98937 65.9711 3.06545 66.3853 3.30294C66.5841 3.4243 66.7552 3.58592 66.8877 3.77739C67.0202 3.96887 67.1111 4.18597 67.1547 4.41471C67.3769 5.37862 67.0741 6.39529 66.5235 7.19229C65.8723 8.13461 64.8908 8.86487 63.8617 9.34556C63.7847 9.39142 63.7289 9.46569 63.7062 9.55236C63.6834 9.63903 63.6957 9.73116 63.7402 9.80889C63.7869 9.88495 63.8612 9.94004 63.9475 9.96268C64.0338 9.98531 64.1256 9.97373 64.2036 9.93036H64.2029Z" fill="#211715"/>
<path d="M52.6903 12.3207C50.5048 11.8531 47.7649 12.2449 46.507 14.3061C46.1662 14.8283 46.0223 15.4547 46.1009 16.0733C46.1975 16.6241 46.4798 17.1253 46.9007 17.4933C47.7964 18.2796 49.0931 18.3743 50.2209 18.1833C51.505 17.9597 52.6884 17.3441 53.6087 16.4211C53.9153 16.1107 53.4367 15.631 53.1299 15.9422C52.4236 16.6483 51.5433 17.1551 50.5782 17.4115C49.6868 17.6524 48.6069 17.7173 47.7653 17.2723C47.3491 17.0603 47.0242 16.7043 46.8509 16.2705C46.7709 16.0423 46.7398 15.7997 46.7598 15.5586C46.7798 15.3175 46.8504 15.0834 46.9669 14.8714C47.387 14.0753 48.0916 13.4666 48.9403 13.1666C50.0893 12.7729 51.3251 12.7061 52.5098 12.9738C52.9348 13.0648 53.1165 12.412 52.6898 12.3207H52.6903Z" fill="#211715"/>
<path d="M64.4131 10.1156C65.1206 9.40748 66.0025 8.89869 66.9697 8.64068C67.8616 8.39942 68.9405 8.33494 69.7827 8.78035C70.199 8.99208 70.524 9.34817 70.6969 9.78207C70.777 10.0103 70.808 10.2527 70.788 10.4937C70.7681 10.7347 70.6975 10.9688 70.581 11.1807C70.1611 11.9771 69.4566 12.586 68.6077 12.886C67.4552 13.2801 66.216 13.3466 65.0279 13.0783C64.6028 12.9877 64.4212 13.6404 64.8479 13.7314C67.0371 14.1987 69.7806 13.8118 71.0416 11.746C71.3822 11.2242 71.5262 10.5983 71.4477 9.98016C71.3514 9.42902 71.0692 8.92753 70.648 8.55927C69.7516 7.7737 68.4558 7.67818 67.3276 7.86964C66.0413 8.09428 64.856 8.71162 63.9345 9.63689C63.6278 9.94728 64.1063 10.4263 64.4133 10.1157L64.4131 10.1156Z" fill="#211715"/>
<path d="M54.1952 8.78617C53.3481 7.8478 52.2731 7.1439 51.0744 6.74253C49.9488 6.38699 48.6217 6.44526 47.6081 7.09341C47.1194 7.39189 46.7564 7.85844 46.5872 8.40552C46.4264 8.97669 46.4678 9.58588 46.7045 10.13C47.1236 11.1117 48.0689 11.8328 49.0245 12.2507C50.1811 12.7607 51.462 12.9201 52.7083 12.7091C52.7947 12.6847 52.868 12.6273 52.9124 12.5492C52.9567 12.4712 52.9686 12.3788 52.9453 12.292C52.9197 12.2066 52.8621 12.1343 52.7845 12.0902C52.7069 12.0461 52.6154 12.0337 52.5288 12.0554C51.5941 12.2064 50.6364 12.1217 49.7426 11.809C48.9042 11.5227 48.0538 11.0131 47.5477 10.267C47.018 9.48568 47.0092 8.39325 47.8017 7.77966C48.5842 7.17468 49.7014 7.08678 50.6315 7.32099C51.8189 7.62009 52.8949 8.37307 53.7161 9.26474C54.0123 9.586 54.4898 9.10616 54.1949 8.78589L54.1952 8.78617Z" fill="#211715"/>
<path d="M63.3681 17.2828C64.2129 18.2127 65.282 18.9104 66.4733 19.3094C67.5993 19.6649 68.9249 19.6057 69.9396 18.9593C70.4372 18.656 70.8039 18.1781 70.9681 17.619C71.12 17.0509 71.0739 16.4479 70.8375 15.9095C70.4118 14.9164 69.4416 14.1948 68.473 13.78C67.3248 13.2832 66.0565 13.1328 64.8239 13.3475C64.7378 13.372 64.6647 13.4295 64.6204 13.5074C64.5762 13.5853 64.5643 13.6775 64.5873 13.7641C64.6129 13.8496 64.6705 13.922 64.7482 13.966C64.8258 14.0101 64.9174 14.0225 65.004 14.0006C65.9339 13.8456 66.8878 13.9259 67.7787 14.2341C68.6099 14.5137 69.4529 15.01 69.9671 15.7385C70.5174 16.517 70.5597 17.6209 69.7658 18.2562C68.9884 18.8782 67.8503 18.9661 66.9158 18.7306C65.7349 18.4331 64.6668 17.6877 63.8469 16.8038C63.5506 16.4835 63.0718 16.9634 63.3681 17.2828Z" fill="#211715"/>
<path d="M59.1178 6.46341C57.6962 6.37539 56.2842 6.75009 55.0933 7.53144C53.9814 8.28623 53.1331 9.3694 52.6666 10.6297C51.7395 13.1085 52.3421 16.2026 54.3763 17.9586C56.4051 19.7092 59.5845 20.0364 61.963 18.824C64.338 17.6132 65.5305 14.839 65.26 12.2494C65.1267 10.9113 64.5834 9.64702 63.7044 8.62938C62.7898 7.59452 61.564 6.88454 60.2112 6.60619C59.8506 6.53221 59.4851 6.48449 59.1175 6.46341C58.6823 6.43745 58.6838 7.11481 59.1175 7.14063C60.3884 7.20216 61.6055 7.67184 62.5883 8.47997C63.5069 9.26095 64.1564 10.3113 64.4445 11.4822C65.0048 13.7436 64.2329 16.4625 62.3033 17.8273C60.355 19.2053 57.4808 19.1998 55.4723 17.9341C53.4172 16.6383 52.5643 14.0454 53.0581 11.7087C53.3046 10.523 53.9136 9.4432 54.801 8.61894C55.7139 7.78696 56.8727 7.27461 58.1024 7.15925C58.4398 7.12846 58.779 7.12233 59.1172 7.14091C59.5535 7.16335 59.5522 6.48613 59.1178 6.46341Z" fill="#211715"/>
<path d="M61.2603 10.1446C60.7134 9.52451 59.9058 9.28481 59.1057 9.21483C58.3774 9.15377 57.6468 9.30401 57.0017 9.64754C55.7147 10.3328 54.9777 11.7263 55.0111 13.1677C55.0185 13.8409 55.2153 14.4985 55.5789 15.0652C55.9425 15.6319 56.4583 16.0848 57.0672 16.3722C58.3053 16.9405 59.8926 16.9446 61.0241 16.1236C61.6374 15.6719 62.0961 15.0415 62.337 14.3189C62.6457 13.4274 62.6906 12.4085 62.271 11.5476C62.2251 11.4707 62.1508 11.415 62.0642 11.3924C61.9775 11.3697 61.8855 11.382 61.8078 11.4265C61.7316 11.4731 61.6764 11.5473 61.6538 11.6337C61.6311 11.7201 61.6428 11.8119 61.6863 11.8898C61.998 12.5295 61.9366 13.2941 61.7415 13.9593C61.5905 14.4965 61.2963 14.9826 60.8903 15.3655C60.0479 16.1432 58.7866 16.2555 57.7171 15.9057C57.1949 15.74 56.7301 15.4301 56.3761 15.0118C56.0222 14.5936 55.7935 14.0839 55.7164 13.5414C55.5541 12.3961 55.9941 11.1852 56.9343 10.489C57.4749 10.0895 58.1301 9.87531 58.8022 9.87822C59.5218 9.88076 60.2914 10.0677 60.7814 10.6236C61.0702 10.951 61.5477 10.4706 61.2603 10.1446Z" fill="#211715"/>
<path d="M5.5008 7.29639C3.9924 7.29639 2.7648 8.54559 2.7648 10.0612V25.1812C2.4012 25.4332 2.0412 25.6996 1.6992 25.9876C1.2888 26.3332 1.2384 26.9596 1.584 27.37C1.9296 27.7804 2.556 27.8272 2.9664 27.4852C5.3064 25.516 8.262 24.4324 11.3184 24.4324C18.4932 24.4324 24.336 30.2752 24.336 37.45C24.336 37.9864 24.7788 38.4004 25.3152 38.4004C25.8516 38.4004 26.2656 37.9864 26.2656 37.45C26.2656 37.2304 26.2476 37.0072 26.2368 36.7876H39.6C40.9968 36.7876 42.7896 35.5024 43.2864 34.138L45.9648 26.8228C46.1952 26.1892 46.1124 25.5484 45.7344 25.0084C45.2592 24.3316 44.334 23.8852 43.3728 23.8852H26.5248L22.7232 9.85959C22.3884 8.27919 21.3264 7.29639 19.9872 7.29639H5.5008ZM37.7856 11.8468C33.7176 11.8468 31.2768 14.212 31.2768 18.1828V22.042H36.9216V18.3556C36.9216 16.1956 37.5516 15.6736 37.728 15.6484C37.9944 15.6664 38.25 15.5728 38.448 15.3892C38.646 15.2056 38.7648 14.9392 38.7648 14.6692V12.826C38.7648 12.2896 38.322 11.8468 37.7856 11.8468ZM7.3728 11.9044H18.864L21.1104 20.1988H7.3728V11.9044ZM11.0592 26.65C4.9608 26.65 0 31.6108 0 37.7092C0 43.8076 4.9608 48.7684 11.0592 48.7684C17.1576 48.7684 22.1184 43.8076 22.1184 37.7092C22.1184 31.6108 17.1576 26.65 11.0592 26.65ZM11.0592 33.562C13.3452 33.562 15.2064 35.4232 15.2064 37.7092C15.2064 39.9952 13.3452 41.8564 11.0592 41.8564C8.7732 41.8564 6.912 39.9952 6.912 37.7092C6.912 35.4232 8.7732 33.562 11.0592 33.562ZM42.3648 37.7956C41.4936 38.314 40.5144 38.6308 39.6 38.6308H38.3616C39.1356 39.3076 39.6288 40.2904 39.6288 41.3956C39.6288 43.426 37.9728 45.082 35.9424 45.082C33.912 45.082 32.256 43.426 32.256 41.3956C32.256 40.2904 32.7492 39.3076 33.5232 38.6308H29.1168C28.764 39.4948 28.5696 40.4272 28.5696 41.3956C28.5696 45.46 31.878 48.7684 35.9424 48.7684C40.0068 48.7684 43.3152 45.46 43.3152 41.3956C43.3152 40.114 42.9804 38.8864 42.3648 37.7956Z" fill="#056DB2"/>
</svg>
