<svg width="41" height="41" viewBox="0 0 41 41" fill="none" xmlns="http://www.w3.org/2000/svg">
<path d="M31.6 34.775L28 18.375L35 11.375C38 8.375 39 4.375 38 2.375C36 1.375 32 2.375 29 5.375L22 12.375L5.6 8.775C4.6 8.575 3.8 8.975 3.4 9.775L2.8 10.775C2.4 11.775 2.6 12.775 3.4 13.375L14 20.375L10 26.375H4L2 28.375L8 32.375L12 38.375L14 36.375V30.375L20 26.375L27 36.975C27.6 37.775 28.6 37.975 29.6 37.575L30.6 37.175C31.4 36.575 31.8 35.775 31.6 34.775Z" stroke="white" stroke-width="4" stroke-linecap="round" stroke-linejoin="round"/>
</svg>
