<svg width="54" height="54" viewBox="0 0 54 54" fill="none" xmlns="http://www.w3.org/2000/svg">
<path d="M39.4021 35.9531V31.5898C39.4021 31.0629 39.1927 30.5574 38.8201 30.1848C38.4474 29.8122 37.942 29.6028 37.415 29.6028H35.1717C34.776 29.602 34.3894 29.4836 34.0611 29.2626C33.7328 29.0415 33.4777 28.7279 33.3281 28.3615L33.3176 28.3361C33.1643 27.9711 33.1225 27.5688 33.1976 27.1801C33.2727 26.7913 33.4612 26.4336 33.7395 26.1519L35.3215 24.5698C35.5061 24.3854 35.6525 24.1664 35.7524 23.9254C35.8523 23.6843 35.9037 23.4259 35.9037 23.165C35.9037 22.9041 35.8523 22.6457 35.7524 22.4046C35.6525 22.1636 35.5061 21.9446 35.3215 21.7602L32.2439 18.6678C32.0595 18.4832 31.8405 18.3368 31.5994 18.2369C31.3584 18.137 31.1 18.0856 30.8391 18.0856C30.5781 18.0856 30.3198 18.137 30.0787 18.2369C29.8377 18.3368 29.6187 18.4832 29.4342 18.6678L27.8522 20.2498C27.5705 20.5281 27.2127 20.7166 26.824 20.7917C26.4352 20.8668 26.033 20.825 25.6679 20.6717L25.6426 20.6612C25.2765 20.5118 24.9631 20.2569 24.7421 19.9291C24.5211 19.6012 24.4024 19.2151 24.4013 18.8197V16.5848C24.4013 16.0578 24.1919 15.5524 23.8193 15.1798C23.4466 14.8071 22.9412 14.5978 22.4142 14.5978H18.0468C17.5198 14.5978 17.0144 14.8071 16.6417 15.1798C16.2691 15.5524 16.0597 16.0578 16.0597 16.5848V18.8281C16.059 19.2239 15.9405 19.6105 15.7195 19.9388C15.4984 20.267 15.1848 20.5222 14.8184 20.6717L14.7931 20.6823C14.428 20.8356 14.0257 20.8774 13.637 20.8023C13.2483 20.7272 12.8905 20.5386 12.6088 20.2604L11.0268 18.6784C10.8423 18.4938 10.6233 18.3474 10.3823 18.2475C10.1412 18.1476 9.88285 18.0961 9.62192 18.0961C9.36099 18.0961 9.10261 18.1476 8.86156 18.2475C8.62051 18.3474 8.40151 18.4938 8.21708 18.6784L5.12789 21.7559C4.94332 21.9404 4.79689 22.1594 4.69699 22.4004C4.59709 22.6415 4.54567 22.8999 4.54567 23.1608C4.54567 23.4217 4.59709 23.6801 4.69699 23.9211C4.79689 24.1622 4.94332 24.3812 5.12789 24.5656L6.70993 26.1477C6.98816 26.4293 7.17672 26.7871 7.2518 27.1759C7.32688 27.5646 7.28513 27.9669 7.1318 28.3319L7.12125 28.3572C6.97183 28.7233 6.71702 29.0367 6.38916 29.2578C6.0613 29.4788 5.67517 29.5974 5.27977 29.5986H3.04172C2.78043 29.5986 2.5217 29.6501 2.28034 29.7503C2.03899 29.8504 1.81975 29.9971 1.63519 30.1821C1.45062 30.367 1.30434 30.5866 1.20473 30.8282C1.10512 31.0697 1.05414 31.3286 1.05469 31.5898V35.9531C1.05469 36.4801 1.26404 36.9855 1.63668 37.3581C2.00932 37.7308 2.51473 37.9401 3.04172 37.9401H5.28504C5.68044 37.9413 6.06657 38.0599 6.39443 38.281C6.72229 38.502 6.9771 38.8154 7.12653 39.1815L7.13707 39.2068C7.2904 39.5718 7.33216 39.9741 7.25707 40.3628C7.18199 40.7516 6.99343 41.1094 6.7152 41.3911L5.13317 42.9731C4.94859 43.1575 4.80217 43.3765 4.70226 43.6176C4.60236 43.8586 4.55094 44.117 4.55094 44.3779C4.55094 44.6389 4.60236 44.8972 4.70226 45.1383C4.80217 45.3793 4.94859 45.5983 5.13317 45.7828L8.21813 48.8677C8.40256 49.0523 8.62157 49.1987 8.86262 49.2986C9.10367 49.3985 9.36204 49.45 9.62297 49.45C9.8839 49.45 10.1423 49.3985 10.3833 49.2986C10.6244 49.1987 10.8434 49.0523 11.0278 48.8677L12.6098 47.2857C12.8915 47.0075 13.2493 46.8189 13.6381 46.7438C14.0268 46.6688 14.4291 46.7105 14.7941 46.8638L14.8194 46.8744C15.1855 47.0238 15.4989 47.2786 15.7199 47.6065C15.941 47.9343 16.0596 48.3205 16.0608 48.7159V50.9592C16.0611 51.4858 16.2704 51.9908 16.6428 52.3632C17.0152 52.7356 17.5201 52.9449 18.0468 52.9452H22.41C22.937 52.9452 23.4424 52.7358 23.815 52.3632C24.1877 51.9905 24.397 51.4851 24.397 50.9581V48.7148C24.3982 48.3194 24.5169 47.9333 24.7379 47.6054C24.9589 47.2776 25.2723 47.0227 25.6384 46.8733L25.6637 46.8628C26.0287 46.7095 26.431 46.6677 26.8198 46.7428C27.2085 46.8179 27.5663 47.0064 27.848 47.2847L29.43 48.8667C29.6144 49.0513 29.8334 49.1977 30.0745 49.2976C30.3155 49.3975 30.5739 49.4489 30.8348 49.4489C31.0958 49.4489 31.3542 49.3975 31.5952 49.2976C31.8363 49.1977 32.0553 49.0513 32.2397 48.8667L35.332 45.787C35.5166 45.6026 35.663 45.3836 35.7629 45.1425C35.8628 44.9015 35.9143 44.6431 35.9143 44.3822C35.9143 44.1212 35.8628 43.8628 35.7629 43.6218C35.663 43.3807 35.5166 43.1617 35.332 42.9773L33.75 41.3953C33.4718 41.1136 33.2832 40.7558 33.2081 40.3671C33.133 39.9783 33.1748 39.5761 33.3281 39.211L33.3387 39.1857C33.4881 38.8196 33.7429 38.5062 34.0708 38.2852C34.3986 38.0642 34.7848 37.9455 35.1802 37.9443H37.4235C37.9497 37.9421 38.4536 37.7312 38.8246 37.3579C39.1955 36.9846 39.4032 36.4794 39.4021 35.9531Z" stroke="#056DB2" stroke-width="2.10938" stroke-linecap="round" stroke-linejoin="round"/>
<path d="M20.2289 41.6602C24.5859 41.6602 28.118 38.1282 28.118 33.7711C28.118 29.4141 24.5859 25.8821 20.2289 25.8821C15.8719 25.8821 12.3398 29.4141 12.3398 33.7711C12.3398 38.1282 15.8719 41.6602 20.2289 41.6602Z" stroke="#056DB2" stroke-width="2.10938" stroke-linecap="round" stroke-linejoin="round"/>
<path d="M21.8795 14.5979V14.5547C21.8795 14.1351 22.0462 13.7327 22.3429 13.436C22.6396 13.1393 23.042 12.9727 23.4615 12.9727H25.244C25.5583 12.9723 25.8655 12.8784 26.1262 12.7027C26.387 12.5271 26.5895 12.2777 26.7079 11.9865C26.7079 11.9802 26.7131 11.9728 26.7163 11.9665C26.8382 11.6761 26.871 11.3559 26.8105 11.0468C26.7501 10.7377 26.5991 10.4536 26.3767 10.2305L25.1111 8.97117C24.8158 8.67467 24.65 8.27325 24.65 7.85478C24.65 7.43632 24.8158 7.0349 25.1111 6.7384L27.5622 4.2873C27.8586 3.99233 28.2598 3.82674 28.678 3.82674C29.0962 3.82674 29.4974 3.99233 29.7939 4.2873L31.0542 5.55293C31.2778 5.77424 31.562 5.92425 31.8708 5.98396C32.1797 6.04366 32.4993 6.01038 32.7892 5.88832L32.8092 5.87988C33.1007 5.76163 33.3502 5.55921 33.5261 5.29846C33.7019 5.03771 33.796 4.73047 33.7964 4.41598V2.63672C33.7964 2.21714 33.9631 1.81474 34.2598 1.51805C34.5565 1.22137 34.9589 1.05469 35.3785 1.05469H38.8452C39.2648 1.05469 39.6672 1.22137 39.9639 1.51805C40.2606 1.81474 40.4273 2.21714 40.4273 2.63672V4.41914C40.4276 4.73352 40.5215 5.04067 40.6972 5.3014C40.8728 5.56214 41.1222 5.76463 41.4134 5.88305L41.4324 5.89148C41.7225 6.01349 42.0422 6.04674 42.3512 5.98704C42.6602 5.92735 42.9446 5.77738 43.1684 5.55609L44.434 4.29047C44.7305 3.99549 45.1317 3.8299 45.5499 3.8299C45.9681 3.8299 46.3693 3.99549 46.6657 4.29047L49.1168 6.74156C49.4121 7.03806 49.5779 7.43948 49.5779 7.85795C49.5779 8.27641 49.4121 8.67783 49.1168 8.97434L47.8491 10.2305C47.6275 10.4541 47.4774 10.7385 47.4179 11.0476C47.3583 11.3567 47.3921 11.6766 47.5148 11.9665L47.5221 11.9865C47.6405 12.2776 47.8428 12.5268 48.1033 12.7024C48.3639 12.8781 48.6708 12.9721 48.985 12.9727H50.7674C51.187 12.9727 51.5894 13.1393 51.8861 13.436C52.1828 13.7327 52.3494 14.1351 52.3494 14.5547V18.0204C52.3494 18.44 52.1828 18.8424 51.8861 19.1391C51.5894 19.4357 51.187 19.6024 50.7674 19.6024H48.985C48.6707 19.603 48.3637 19.6973 48.1031 19.8731C47.8426 20.0489 47.6403 20.2984 47.5221 20.5896L47.5148 20.6086C47.3913 20.8984 47.3572 21.2184 47.4168 21.5277C47.4764 21.8369 47.6269 22.1214 47.8491 22.3446L49.1094 23.605C49.4044 23.9014 49.57 24.3026 49.57 24.7208C49.57 25.139 49.4044 25.5402 49.1094 25.8367L46.6583 28.2878C46.3619 28.5827 45.9607 28.7483 45.5425 28.7483C45.1243 28.7483 44.7231 28.5827 44.4266 28.2878L43.161 27.0274C42.9379 26.805 42.6535 26.6543 42.3442 26.5946C42.0349 26.5348 41.7149 26.5688 41.425 26.692L41.406 26.6994C41.1163 26.8184 40.8684 27.0208 40.6938 27.2808C40.5191 27.5409 40.4257 27.8469 40.4251 28.1602V29.9426C40.4239 30.2643 40.3246 30.5779 40.1405 30.8417C39.9564 31.1056 39.6962 31.307 39.3947 31.4191" stroke="#056DB2" stroke-width="2.10938" stroke-linecap="round" stroke-linejoin="round"/>
<path d="M37.1124 21.423C39.9486 21.423 42.2477 19.1239 42.2477 16.2877C42.2477 13.4516 39.9486 11.1525 37.1124 11.1525C34.2763 11.1525 31.9772 13.4516 31.9772 16.2877C31.9772 19.1239 34.2763 21.423 37.1124 21.423Z" stroke="#056DB2" stroke-width="2.10938" stroke-linecap="round" stroke-linejoin="round"/>
</svg>
