<svg width="21" height="26" viewBox="0 0 21 26" fill="none" xmlns="http://www.w3.org/2000/svg">
<path d="M19.8332 14.0006C19.8332 19.8339 15.7498 22.7506 10.8965 24.4423C10.6424 24.5284 10.3663 24.5243 10.1148 24.4306C5.24984 22.7506 1.1665 19.8339 1.1665 14.0006V5.83394C1.1665 5.52452 1.28942 5.22777 1.50821 5.00898C1.72701 4.79019 2.02375 4.66727 2.33317 4.66727C4.6665 4.66727 7.58317 3.26727 9.61317 1.49394C9.86033 1.28277 10.1747 1.16675 10.4998 1.16675C10.8249 1.16675 11.1393 1.28277 11.3865 1.49394C13.4282 3.27894 16.3332 4.66727 18.6665 4.66727C18.9759 4.66727 19.2727 4.79019 19.4915 5.00898C19.7103 5.22777 19.8332 5.52452 19.8332 5.83394V14.0006Z" stroke="#0677BD" stroke-width="2.33333" stroke-linecap="round" stroke-linejoin="round"/>
</svg>
