<svg width="28" height="28" viewBox="0 0 28 28" fill="none" xmlns="http://www.w3.org/2000/svg">
<path fill-rule="evenodd" clip-rule="evenodd" d="M9.8 3.42602e-06H9.70784C8.46675 -6.6574e-05 7.39742 -0.000122604 6.54109 0.115013C5.62337 0.238395 4.74368 0.516631 4.03015 1.23016C3.31663 1.94369 3.03838 2.82338 2.915 3.7411C2.79986 4.59742 2.79993 5.66677 2.8 6.90784V7V11.9V19.839C1.16873 20.4155 0 21.9713 0 23.8C0 26.1197 1.88041 28 4.2 28H19.5952H19.6C21.9197 28 23.8 26.1197 23.8 23.8V9.80002V7.00002H24.5C26.433 7.00002 28 5.43301 28 3.50002C28 1.56701 26.433 1.7445e-05 24.5 1.7445e-05C24.3545 1.7445e-05 24.2112 0.0088795 24.0705 0.0261135C23.983 0.0089775 23.8925 3.42602e-06 23.8 3.42602e-06H9.8ZM15.639 25.2C15.4843 24.7621 15.4 24.2908 15.4 23.8V22.4H4.2C3.42681 22.4 2.8 23.0268 2.8 23.8C2.8 24.5732 3.42681 25.2 4.2 25.2H15.639ZM23.8 4.20002H24.5C24.8865 4.20002 25.2 3.88661 25.2 3.50002C25.2 3.11341 24.8865 2.80002 24.5 2.80002C24.1135 2.80002 23.8 3.11341 23.8 3.50002V4.20002ZM8.4 7C8.4 6.22681 9.02681 5.6 9.8 5.6H16.8C17.5732 5.6 18.2 6.22681 18.2 7C18.2 7.77319 17.5732 8.4 16.8 8.4H9.8C9.02681 8.4 8.4 7.77319 8.4 7ZM9.8 11.2C9.02681 11.2 8.4 11.8268 8.4 12.6C8.4 13.3732 9.02681 14 9.8 14H16.8C17.5732 14 18.2 13.3732 18.2 12.6C18.2 11.8268 17.5732 11.2 16.8 11.2H9.8Z" fill="white"/>
</svg>
