<svg width="47" height="41" viewBox="0 0 47 41" fill="none" xmlns="http://www.w3.org/2000/svg">
<path d="M0 40.7999H11.524V34H0V40.7999Z" fill="#4A95D9"/>
<path d="M11.5238 40.7999H23.0478V34H11.5238V40.7999Z" fill="#056DB2"/>
<path d="M23.048 40.7999H34.572V34H23.048V40.7999Z" fill="#034A7A"/>
<path d="M34.5719 40.7999H46.0959V34H34.5719V40.7999Z" fill="#4A95D9"/>
<path d="M0 33.9998H5.762V27.2H0V33.9998Z" fill="#056DB2"/>
<path d="M40.3342 34H46.0962V27.2001H40.3342V34Z" fill="#034A7A"/>
<path d="M5.76208 33.9998H17.2861V27.2H5.76208V33.9998Z" fill="#034A7A"/>
<path d="M17.2859 33.9998H28.8099V27.2H17.2859V33.9998Z" fill="#4A95D9"/>
<path d="M28.8102 33.9998H40.3342V27.2H28.8102V33.9998Z" fill="#056DB2"/>
<path d="M0 27.1999H11.524V20.4H0V27.1999Z" fill="#4A95D9"/>
<path d="M11.5238 27.1999H23.0478V20.4H11.5238V27.1999Z" fill="#056DB2"/>
<path d="M23.048 27.1999H34.572V20.4H23.048V27.1999Z" fill="#034A7A"/>
<path d="M34.5719 27.1999H46.0959V20.4H34.5719V27.1999Z" fill="#4A95D9"/>
<path d="M0 20.3999H5.762V13.6H0V20.3999Z" fill="#056DB2"/>
<path d="M40.3342 20.3996H46.0962V13.5997H40.3342V20.3996Z" fill="#034A7A"/>
<path d="M5.76227 20.3996H17.2863V13.5997H5.76227V20.3996Z" fill="#034A7A"/>
<path d="M17.2859 20.3999H28.8099V13.6H17.2859V20.3999Z" fill="#4A95D9"/>
<path d="M28.8102 20.3999H40.3342V13.6H28.8102V20.3999Z" fill="#056DB2"/>
<path d="M0 13.5999H11.524V6.80005H0V13.5999Z" fill="#4A95D9"/>
<path d="M11.5238 13.5999H23.0478V6.80005H11.5238V13.5999Z" fill="#056DB2"/>
<path d="M23.048 13.5999H34.572V6.80005H23.048V13.5999Z" fill="#034A7A"/>
<path d="M0 6.79989H5.762V0H0V6.79989Z" fill="#056DB2"/>
<path d="M5.76208 6.79989H17.2861V0H5.76208V6.79989Z" fill="#034A7A"/>
</svg>
