<svg width="28" height="28" viewBox="0 0 28 28" fill="none" xmlns="http://www.w3.org/2000/svg">
<path d="M6.99984 25.6666C6.381 25.6666 5.78751 25.4208 5.34992 24.9832C4.91234 24.5456 4.6665 23.9521 4.6665 23.3333V4.66659C4.6665 4.04775 4.91234 3.45426 5.34992 3.01667C5.78751 2.57909 6.381 2.33326 6.99984 2.33326H16.3332C16.7025 2.33266 17.0683 2.40512 17.4095 2.54649C17.7506 2.68785 18.0605 2.89531 18.3212 3.15692L22.5072 7.34292C22.7695 7.60368 22.9775 7.91382 23.1193 8.25544C23.2611 8.59706 23.3338 8.96339 23.3332 9.33326V23.3333C23.3332 23.9521 23.0873 24.5456 22.6498 24.9832C22.2122 25.4208 21.6187 25.6666 20.9998 25.6666H6.99984Z" stroke="#0677BD" stroke-width="2.33333" stroke-linecap="round" stroke-linejoin="round"/>
<path d="M16.3335 2.33325V8.16659C16.3335 8.476 16.4564 8.77275 16.6752 8.99154C16.894 9.21034 17.1907 9.33325 17.5002 9.33325H23.3335" stroke="#0677BD" stroke-width="2.33333" stroke-linecap="round" stroke-linejoin="round"/>
<path d="M11.6668 10.5H9.3335" stroke="#0677BD" stroke-width="2.33333" stroke-linecap="round" stroke-linejoin="round"/>
<path d="M18.6668 15.1667H9.3335" stroke="#0677BD" stroke-width="2.33333" stroke-linecap="round" stroke-linejoin="round"/>
<path d="M18.6668 19.8333H9.3335" stroke="#0677BD" stroke-width="2.33333" stroke-linecap="round" stroke-linejoin="round"/>
</svg>
