<svg width="47" height="40" viewBox="0 0 47 40" fill="none" xmlns="http://www.w3.org/2000/svg">
<path d="M16.6704 32.5942H13.4855V38.9638H16.6704V32.5942Z" fill="#C7CFE2"/>
<path d="M16.6704 32.5942H13.4855V34.9828H16.6704V32.5942Z" fill="#AFB9D2"/>
<path d="M32.5944 32.5942H29.4095V38.9638H32.5944V32.5942Z" fill="#C7CFE2"/>
<path d="M32.5944 32.5942H29.4095V34.9828H32.5944V32.5942Z" fill="#AFB9D2"/>
<path d="M43.7412 32.5943H2.33889C1.45941 32.5943 0.746521 31.8814 0.746521 31.0019V2.33883C0.746521 1.45935 1.45941 0.74646 2.33889 0.74646H43.7412C44.6207 0.74646 45.3336 1.45935 45.3336 2.33883V31.0019C45.3336 31.8814 44.6207 32.5943 43.7412 32.5943Z" fill="#E4EAF8"/>
<path d="M42.1487 3.93103H3.93121V29.4094H42.1487V3.93103Z" fill="#00AAF0"/>
<path d="M42.1489 25.4288H3.9314V27.0212H42.1489V25.4288Z" fill="#0096DC"/>
<path d="M42.1489 19.0591H3.9314V20.6515H42.1489V19.0591Z" fill="#0096DC"/>
<path d="M42.1489 12.6897H3.9314V14.2821H42.1489V12.6897Z" fill="#0096DC"/>
<path d="M42.1489 6.32031H3.9314V7.91268H42.1489V6.32031Z" fill="#0096DC"/>
<path d="M43.7412 0H2.33883C1.04922 0 0 1.04913 0 2.33883V31.0019C0 32.2915 1.04922 33.3408 2.33883 33.3408H12.7391V38.2175H10.3008C9.88857 38.2175 9.55431 38.5517 9.55431 38.964C9.55431 39.3763 9.88848 39.7104 10.3008 39.7104H35.7791C36.1913 39.7104 36.5256 39.3763 36.5256 38.964C36.5256 38.5517 36.1914 38.2175 35.7791 38.2175H33.3408V33.3408H43.7411C45.0307 33.3408 46.0799 32.2915 46.0799 31.0019V2.33883C46.08 1.04913 45.0308 0 43.7412 0ZM14.2321 33.3408H15.924V38.2175H14.2321V33.3408ZM28.6631 33.3408V38.2175H17.4169V33.3408H28.6631ZM31.8479 38.2175H30.156V33.3408H31.8479V38.2175ZM44.5872 31.0019C44.5872 31.4684 44.2076 31.8479 43.7412 31.8479H2.33883C1.87236 31.8479 1.49283 31.4684 1.49283 31.0019V2.33883C1.49283 1.87236 1.87236 1.49283 2.33883 1.49283H43.7412C44.2076 1.49283 44.5872 1.87236 44.5872 2.33883V31.0019Z" fill="black"/>
<path d="M42.1488 3.18481H3.93121C3.51901 3.18481 3.18475 3.51898 3.18475 3.93127V29.4096C3.18475 29.8218 3.51892 30.1561 3.93121 30.1561H42.1488C42.561 30.1561 42.8953 29.8219 42.8953 29.4096V3.93127C42.8952 3.51907 42.561 3.18481 42.1488 3.18481ZM35.0328 15.924H30.156V11.0473H35.0328V15.924ZM36.5256 11.0473H41.4024V15.924H36.5256V11.0473ZM22.2936 17.4169V22.2936H17.4168V17.4169H22.2936ZM17.4169 15.924V11.0473H22.2936V15.924H17.4169ZM23.7865 17.4169H28.6632V22.2936H23.7865V17.4169ZM23.7865 15.924V11.0473H28.6632V15.924H23.7865ZM30.156 9.55438V4.67773H35.0328V9.55447L30.156 9.55438ZM28.6631 9.55438H23.7864V4.67773H28.6631V9.55438ZM22.2936 9.55438H17.4168V4.67773H22.2936V9.55438ZM15.924 9.55438H11.0472V4.67773H15.924V9.55438ZM15.924 11.0473V15.924H11.0472V11.0473H15.924ZM9.55441 15.924H4.67767V11.0473H9.55441V15.924ZM4.67767 17.4169H9.55441V22.2936H4.67767V17.4169ZM11.0472 17.4169H15.924V22.2936H11.0472V17.4169ZM15.924 23.7864V28.6632H11.0472V23.7864H15.924ZM17.4169 23.7864H22.2936V28.6632H17.4169V23.7864ZM23.7865 23.7864H28.6632V28.6632H23.7865V23.7864ZM30.156 23.7864H35.0328V28.6632H30.156V23.7864ZM30.156 22.2936V17.4169H35.0328V22.2936H30.156ZM36.5256 17.4169H41.4024V22.2936H36.5256V17.4169ZM41.4024 9.55438H36.5256V4.67773H41.4024V9.55438ZM9.55441 4.67773V9.55447H4.67767V4.67773H9.55441ZM4.67767 23.7864H9.55441V28.6632H4.67767V23.7864ZM36.5256 28.6632V23.7864H41.4024V28.6632H36.5256Z" fill="black"/>
</svg>
