<svg width="27" height="30" viewBox="0 0 27 30" fill="none" xmlns="http://www.w3.org/2000/svg">
<path d="M2.67138 17.3368C2.41906 17.3376 2.17168 17.2669 1.95798 17.1328C1.74428 16.9986 1.57302 16.8066 1.46411 16.579C1.3552 16.3514 1.3131 16.0976 1.34271 15.847C1.37232 15.5964 1.47242 15.3594 1.63138 15.1635L14.8314 1.56345C14.9304 1.44916 15.0653 1.37193 15.214 1.34443C15.3627 1.31693 15.5163 1.3408 15.6497 1.41212C15.783 1.48345 15.8882 1.59798 15.9478 1.73693C16.0075 1.87588 16.0181 2.03098 15.978 2.17679L13.418 10.2035C13.3426 10.4055 13.3172 10.6228 13.3442 10.8368C13.3711 11.0508 13.4496 11.255 13.5728 11.432C13.6961 11.609 13.8604 11.7535 14.0517 11.853C14.2431 11.9525 14.4557 12.0042 14.6714 12.0035H24.0047C24.257 12.0026 24.5044 12.0733 24.7181 12.2075C24.9318 12.3416 25.1031 12.5336 25.212 12.7612C25.3209 12.9888 25.363 13.2427 25.3334 13.4932C25.3038 13.7438 25.2037 13.9808 25.0447 14.1768L11.8447 27.7768C11.7457 27.8911 11.6108 27.9683 11.4621 27.9958C11.3134 28.0233 11.1597 27.9994 11.0264 27.9281C10.8931 27.8568 10.7879 27.7423 10.7283 27.6033C10.6686 27.4644 10.6579 27.3093 10.698 27.1635L13.258 19.1368C13.3335 18.9348 13.3589 18.7174 13.3319 18.5034C13.305 18.2895 13.2265 18.0852 13.1033 17.9082C12.98 17.7312 12.8157 17.5868 12.6243 17.4872C12.433 17.3877 12.2204 17.3361 12.0047 17.3368H2.67138Z" stroke="white" stroke-width="2.66667" stroke-linecap="round" stroke-linejoin="round"/>
</svg>
