<svg width="86" height="75" viewBox="0 0 86 75" fill="none" xmlns="http://www.w3.org/2000/svg">
<path d="M43.5035 54.5812C30.4282 54.5814 19.8118 43.9649 19.8121 30.8896C19.8121 30.0809 19.8528 29.2817 19.9318 28.4938C20.2244 25.5805 16.5688 24.0697 14.7378 26.3549C11.489 30.4099 9.54596 35.556 9.54596 41.1561C9.54596 54.2766 20.1164 64.8472 33.237 64.8472C38.8371 64.8472 43.9833 62.9042 48.0383 59.6554C50.3233 57.8247 48.8126 54.1688 45.8994 54.4614C45.1116 54.5407 44.3123 54.5812 43.5035 54.5812Z" fill="#F4C67D"/>
<path d="M36.2303 63.121C23.1097 63.121 12.5393 52.5503 12.5393 39.4298C12.5393 34.1158 14.2899 29.2111 17.2447 25.2589C16.3548 25.1806 15.42 25.5045 14.7381 26.3555C11.4892 30.4106 9.5462 35.5566 9.5462 41.1567C9.5462 54.2773 20.1167 64.8479 33.2372 64.8479C38.1611 64.8479 42.7338 63.3452 46.5226 60.7741C43.4103 62.2777 39.9189 63.121 36.2303 63.121Z" fill="#E0B16E"/>
<path d="M53.0421 20.4125H51.3154V18.7977C51.3154 15.8696 53.6751 13.4873 56.5757 13.4873H57.439V15.214H56.5757C54.5942 15.214 53.042 16.7883 53.042 18.7979V20.4125H53.0421Z" fill="#E0B16E"/>
<path d="M58.0015 25.873C58.0015 22.5397 55.3659 19.7006 52.0345 19.5822C48.5371 19.4579 45.6194 22.2562 45.6194 25.7258V25.7621C45.6194 28.0216 44.7031 30.1588 43.0654 31.7156C40.6631 33.9996 39.2426 37.21 39.2426 40.7679C39.2426 47.7028 44.859 51.101 51.7938 51.101C58.7286 51.101 64.3804 47.7026 64.3804 40.7679C64.3804 37.2313 62.8423 34.0376 60.5193 31.7561C58.9336 30.1979 58.0015 28.0963 58.0015 25.873Z" fill="#F97E62"/>
<path d="M48.2838 31.7152C47.3133 33.9997 46.7401 37.2096 46.7401 40.7684C46.7401 47.6941 49.0021 51.0923 51.7942 51.1009C44.858 51.1009 39.2427 47.7027 39.2427 40.7684C39.2427 37.2096 40.6621 33.9997 43.0656 31.7152C44.7025 30.1578 45.6194 28.0219 45.6194 25.7616V25.7253C45.6194 22.3306 48.4115 19.5782 51.8095 19.5782C50.4386 19.5799 49.3127 22.3323 49.3127 25.7253V25.7616C49.3129 28.0219 48.9433 30.1578 48.2838 31.7152Z" fill="#E86B56"/>
<path d="M52.3544 17.215C47.3124 17.215 43.225 13.1277 43.225 8.08563C48.267 8.08549 52.3544 12.173 52.3544 17.215Z" fill="#BADB82"/>
<path d="M19.9322 28.4934C19.8527 29.2824 19.8131 30.0802 19.8131 30.8901L13.1013 28.6694C13.6021 27.8648 14.1494 27.0912 14.7382 26.3556C16.5686 24.0698 20.224 25.5806 19.9322 28.4934Z" fill="#666666"/>
<path d="M48.0395 59.655C46.7186 60.7135 45.282 61.6339 43.7503 62.3919C42.0582 59.2423 43.5034 54.582 43.5034 54.582C44.3132 54.582 45.1127 54.5405 45.9 54.461C48.8131 54.1694 50.3239 57.8249 48.0395 59.655Z" fill="#666666"/>
<path d="M37.5876 31.5605C37.5876 33.2178 36.4629 34.6143 34.9359 35.0276C34.6375 35.1072 34.3216 35.1514 33.9968 35.1514C32.0147 35.1514 30.4061 33.5428 30.4061 31.5607C30.4061 29.5763 32.0147 27.97 33.9968 27.97C34.3216 27.97 34.6376 28.0141 34.9359 28.0937C36.4628 28.5067 37.5876 29.901 37.5876 31.5605Z" fill="#68B9DD"/>
<path d="M37.5876 31.5604C37.5876 33.2177 36.4629 34.6142 34.9359 35.0275C33.409 34.6144 32.2841 33.2178 32.2841 31.5604C32.2841 29.9009 33.4088 28.5066 34.9359 28.0933C36.4628 28.5066 37.5876 29.9009 37.5876 31.5604Z" fill="#76C7F4"/>
<path d="M31.067 25.1609C31.067 26.8182 29.9423 28.2148 28.4152 28.628C28.1168 28.7076 27.801 28.7518 27.4761 28.7518C25.494 28.7518 23.8854 27.1432 23.8854 25.1611C23.8854 23.1767 25.494 21.5704 27.4761 21.5704C27.801 21.5704 28.117 21.6145 28.4152 21.6941C29.9424 22.1071 31.067 23.5014 31.067 25.1609Z" fill="#68B9DD"/>
<path d="M31.0669 25.1608C31.0669 26.8181 29.9422 28.2146 28.4151 28.6279C26.8882 28.2148 25.7634 26.8182 25.7634 25.1608C25.7634 23.5013 26.8881 22.107 28.4151 21.6937C29.9423 22.107 31.0669 23.5013 31.0669 25.1608Z" fill="#76C7F4"/>
<path d="M39.5907 23.3498C39.5907 25.0071 38.466 26.4037 36.9389 26.817C36.6405 26.8965 36.3247 26.9407 35.9998 26.9407C34.0177 26.9407 32.4091 25.3321 32.4091 23.35C32.4091 21.3656 34.0177 19.7593 35.9998 19.7593C36.3247 19.7593 36.6407 19.8034 36.9389 19.883C38.466 20.296 39.5907 21.6903 39.5907 23.3498Z" fill="#68B9DD"/>
<path d="M39.5907 23.3497C39.5907 25.0069 38.466 26.4035 36.9389 26.8168C35.412 26.4036 34.2872 25.0071 34.2872 23.3497C34.2872 21.6902 35.4119 20.2959 36.9389 19.8826C38.466 20.2959 39.5907 21.6902 39.5907 23.3497Z" fill="#76C7F4"/>
<path d="M36.2098 41.0999C36.2098 42.7572 35.0851 44.1537 33.5581 44.567C33.2597 44.6466 32.9437 44.6908 32.619 44.6908C30.6369 44.6908 29.0283 43.0822 29.0283 41.1001C29.0283 39.1157 30.6369 37.5093 32.619 37.5093C32.9438 37.5093 33.2598 37.5535 33.5581 37.6331C35.0851 38.046 36.2098 39.4403 36.2098 41.0999Z" fill="#68B9DD"/>
<path d="M36.2098 41.0998C36.2098 42.7571 35.0851 44.1536 33.5581 44.5669C32.0312 44.1537 30.9063 42.7572 30.9063 41.0998C30.9063 39.4403 32.031 38.046 33.5581 37.6327C35.0851 38.0458 36.2098 39.4401 36.2098 41.0998Z" fill="#76C7F4"/>
<path d="M15.2947 36.1635C15.2947 36.1635 15.3245 36.2963 15.3806 36.546C15.4338 36.795 15.5315 37.1568 15.646 37.6157C15.7679 38.0736 15.923 38.6262 16.1165 39.2528C16.2092 39.567 16.3217 39.8976 16.4322 40.2468C16.5573 40.5923 16.6685 40.96 16.8135 41.3346C16.8824 41.5227 16.9528 41.7148 17.0244 41.9104C17.1009 42.1039 17.179 42.3009 17.2584 42.5016C17.4115 42.904 17.5935 43.3103 17.7704 43.7306C18.1467 44.5617 18.5509 45.4322 19.0322 46.2953C19.2616 46.7332 19.5257 47.1593 19.7809 47.5969C19.9068 47.8169 20.056 48.0236 20.1932 48.2393C20.3364 48.4508 20.4621 48.676 20.6181 48.8811C20.9182 49.2994 21.2138 49.7257 21.543 50.1275C21.7057 50.3298 21.8592 50.5405 22.0294 50.7372L22.5462 51.322C22.6327 51.419 22.7152 51.52 22.8032 51.6154L23.076 51.8935C23.2577 52.0791 23.439 52.2643 23.6201 52.4495C23.807 52.6284 24.0036 52.7957 24.1913 52.9716L24.4755 53.2322L24.6173 53.3624L24.7671 53.4824C25.5589 54.128 26.3636 54.738 27.1989 55.2455C27.4073 55.3738 27.6139 55.5009 27.8185 55.6269L27.9723 55.7204L28.1314 55.8025C28.2367 55.8584 28.3415 55.9139 28.4457 55.969C28.8632 56.1894 29.2676 56.4174 29.6854 56.5893C29.8916 56.6823 30.0952 56.774 30.2954 56.8643C30.396 56.9097 30.4956 56.9545 30.5943 56.9991C30.6943 57.0409 30.7963 57.0749 30.8958 57.1136C31.2967 57.2646 31.6841 57.4104 32.0561 57.5506C32.4339 57.6757 32.8024 57.7785 33.1503 57.8896C33.3248 57.9444 33.4949 57.9978 33.6603 58.0497C33.827 58.0968 33.9919 58.1302 34.1498 58.1716C34.4668 58.2511 34.7652 58.3208 35.0407 58.3944C35.1788 58.43 35.3112 58.4641 35.4379 58.4968C35.5661 58.521 35.6883 58.5439 35.8041 58.5657C36.2689 58.6498 36.6351 58.7319 36.886 58.7811C37.1368 58.8351 37.2707 58.8639 37.2707 58.8639C37.2707 58.8639 37.1346 58.8697 36.8795 58.8801C36.6243 58.8857 36.2481 58.9042 35.768 58.9071C35.6478 58.9087 35.5211 58.9102 35.3883 58.9119C35.256 58.9049 35.1176 58.8976 34.9733 58.8898C34.6841 58.8756 34.3717 58.8509 34.0362 58.8289C33.8687 58.8163 33.6946 58.8083 33.5174 58.7866C33.3408 58.7603 33.1591 58.7334 32.9725 58.7057C32.5994 58.6481 32.205 58.59 31.7952 58.5165C31.3899 58.4187 30.9678 58.3169 30.5308 58.2116C30.4217 58.1837 30.3098 58.1608 30.2005 58.1269C30.0917 58.0911 29.9823 58.0546 29.8717 58.0181C29.6504 57.9445 29.4257 57.8701 29.1979 57.7945C28.7356 57.6571 28.2879 57.4469 27.8209 57.2507C27.5902 57.1469 27.3467 57.0613 27.1214 56.9339C26.8923 56.8132 26.661 56.6913 26.428 56.5684C25.9518 56.3373 25.5087 56.0332 25.0479 55.7435C24.933 55.6702 24.8178 55.5969 24.7025 55.5233C24.5924 55.4421 24.4819 55.3608 24.3712 55.2793C24.1513 55.1136 23.9303 54.9473 23.7083 54.7801L23.5422 54.6538L23.384 54.5174L23.067 54.2437C22.8563 54.0602 22.6412 53.8791 22.4369 53.6863C22.2385 53.4876 22.0396 53.2885 21.8405 53.0892L21.5421 52.7898C21.4459 52.6869 21.3542 52.58 21.2611 52.4744L20.7081 51.8361C20.5264 51.6215 20.3623 51.3937 20.189 51.1736C19.8352 50.7384 19.5384 50.266 19.2273 49.8102C18.6319 48.8814 18.1022 47.9333 17.6686 46.9826C17.2161 46.0402 16.8686 45.0928 16.5603 44.1927C16.2704 43.2855 16.0285 42.4204 15.856 41.611C15.7629 41.2084 15.6958 40.8171 15.625 40.4484C15.5699 40.0756 15.5037 39.7262 15.4673 39.3925C15.3763 38.7294 15.3387 38.1461 15.3081 37.6684C15.2791 37.19 15.2809 36.8127 15.2821 36.5564C15.2842 36.2999 15.2947 36.1635 15.2947 36.1635Z" fill="#E0B16E"/>
<path d="M71.6421 22.125L67.1421 26.625M71.6421 22.125L76.1421 26.625M71.6421 22.125V14.625M71.6421 22.125V28.125M71.6421 14.625V7.125M71.6421 14.625L65.1469 10.8749M71.6421 14.625L78.1373 18.3748M71.6421 14.625L65.1469 18.3748M71.6421 14.625L78.1373 10.8749M71.6421 7.125L67.1421 2.625M71.6421 7.125L76.1421 2.625M71.6421 7.125V1.125M65.1469 10.8749L58.9998 12.522M65.1469 10.8749L63.4998 4.7278M65.1469 10.8749L59.9508 7.875M78.1373 18.3748L79.7844 24.522M78.1373 18.3748L84.2844 16.7279M78.1373 18.3748L83.3334 21.375M65.1469 18.3748L63.4998 24.522M65.1469 18.3748L58.9998 16.7279M65.1469 18.3748L59.9509 21.375M78.1373 10.8749L84.2844 12.522M78.1373 10.8749L79.7844 4.7278M78.1373 10.8749L83.3336 7.875" stroke="#155DFC" stroke-width="2.25" stroke-linecap="round" stroke-linejoin="round"/>
</svg>
