<svg width="48" height="48" viewBox="0 0 48 48" fill="none" xmlns="http://www.w3.org/2000/svg">
<path d="M40 20C40 29.986 28.922 40.386 25.202 43.598C24.8554 43.8586 24.4336 43.9995 24 43.9995C23.5664 43.9995 23.1446 43.8586 22.798 43.598C19.078 40.386 8 29.986 8 20C8 15.7565 9.68571 11.6869 12.6863 8.68629C15.6869 5.68571 19.7565 4 24 4C28.2435 4 32.3131 5.68571 35.3137 8.68629C38.3143 11.6869 40 15.7565 40 20Z" stroke="#0677BD" stroke-width="4" stroke-linecap="round" stroke-linejoin="round"/>
<path d="M24 26C27.3137 26 30 23.3137 30 20C30 16.6863 27.3137 14 24 14C20.6863 14 18 16.6863 18 20C18 23.3137 20.6863 26 24 26Z" stroke="#0677BD" stroke-width="4" stroke-linecap="round" stroke-linejoin="round"/>
</svg>
