<svg width="52" height="50" viewBox="0 0 52 50" fill="none" xmlns="http://www.w3.org/2000/svg">
<path d="M36.8915 11.4735C37.1116 11.5112 37.3319 11.5297 37.5507 11.5297C38.3421 11.5297 39.1127 11.286 39.7718 10.8196C40.6131 10.2241 41.1722 9.33653 41.3461 8.32068C41.5199 7.30465 41.2876 6.28164 40.6922 5.44033C40.0967 4.59902 39.2091 4.03995 38.1932 3.8661C37.177 3.69208 36.1544 3.92475 35.3129 4.51995C34.4716 5.1155 33.9125 6.00306 33.7387 7.01892C33.5648 8.03495 33.7971 9.05796 34.3925 9.89927C34.9881 10.7406 35.8756 11.2996 36.8915 11.4735ZM36.3324 7.46279C36.3324 7.46261 36.3324 7.46261 36.3324 7.46279C36.3877 7.13935 36.5656 6.85694 36.8334 6.66756C37.0428 6.51919 37.2881 6.4417 37.5397 6.4417C37.6092 6.4417 37.6794 6.44745 37.7494 6.4595C38.0726 6.51483 38.355 6.69269 38.5444 6.96044C38.734 7.22802 38.8078 7.5532 38.7525 7.87646C38.6972 8.19972 38.5193 8.48213 38.2515 8.67151C37.9841 8.86089 37.6593 8.93508 37.3355 8.87957C37.0123 8.82424 36.7299 8.64638 36.5405 8.37863C36.3509 8.11122 36.2771 7.78604 36.3324 7.46279Z" fill="#1D2636"/>
<path d="M17.2359 19.4543C19.5575 19.4543 21.4463 17.5656 21.4463 15.244C21.4463 12.9223 19.5574 11.0336 17.2359 11.0336C14.9144 11.0336 13.0255 12.9223 13.0255 15.244C13.0255 17.5656 14.9143 19.4543 17.2359 19.4543ZM17.2359 13.665C18.1065 13.665 18.8148 14.3733 18.8148 15.244C18.8148 16.1146 18.1065 16.8229 17.2359 16.8229C16.3653 16.8229 15.657 16.1146 15.657 15.244C15.657 14.3733 16.3653 13.665 17.2359 13.665Z" fill="#1D2636"/>
<path d="M50.5243 41.427H43.1562V34.0589C43.1562 33.3321 42.5673 32.7431 41.8405 32.7431H36.0511C35.3243 32.7431 34.7354 33.3321 34.7354 34.0589V41.427H22.8937V21.6494C23.0136 21.5434 23.1311 21.4349 23.2449 21.3225L35.2191 16.9112L35.5268 22.552C35.565 23.2498 36.1419 23.7961 36.8406 23.7961H37.6301V28.2695C37.6301 28.9964 38.219 29.5853 38.9458 29.5853C39.6726 29.5853 40.2615 28.9964 40.2615 28.2695V23.7961H41.2264C41.9314 23.7961 42.5111 23.2405 42.5409 22.5363L42.9309 13.3443C43.5967 12.6915 44.1467 11.9176 44.5492 11.0456C45.42 9.15856 45.5042 7.04534 44.7857 5.09515C44.0671 3.14495 42.6324 1.59132 40.7455 0.720339C38.8589 -0.150642 36.7455 -0.234599 34.7953 0.48383L17.8731 6.71807C17.6624 6.70254 17.4505 6.69189 17.236 6.69189C12.5203 6.69189 8.68381 10.5284 8.68381 15.2441C8.68381 16.6263 9.01545 17.9319 9.60035 19.0886L3.21792 41.427H1.31572C0.588916 41.427 0 42.0159 0 42.7427V48.532C0 49.2588 0.588916 49.8477 1.31572 49.8477H50.5243C51.2511 49.8477 51.84 49.2588 51.84 48.532V42.7427C51.84 42.0159 51.2511 41.427 50.5243 41.427ZM37.3669 35.3746H40.5246V41.427H37.3669V35.3746ZM39.9653 21.1645H38.0867L37.8027 15.9594L40.1746 15.0856C40.1914 15.0795 40.2074 15.0722 40.2242 15.0661L39.9653 21.1645ZM35.705 2.95295C36.9953 2.47749 38.3937 2.53282 39.6428 3.10952C40.8915 3.68587 41.841 4.71411 42.3165 6.0047C42.7921 7.29529 42.7364 8.69375 42.1599 9.94245C41.5835 11.1913 40.5553 12.1408 39.2647 12.6163L25.4227 17.7157C25.6596 16.9326 25.7884 16.103 25.7884 15.2437C25.7884 12.2302 24.2203 9.57765 21.8585 8.05404L35.705 2.95295ZM17.2362 9.32299C20.5009 9.32299 23.1569 11.979 23.1569 15.2437C23.1569 18.5084 20.5009 21.1645 17.2362 21.1645C13.9715 21.1645 11.3154 18.5084 11.3154 15.2437C11.3154 11.979 13.9715 9.32299 17.2362 9.32299ZM11.6001 21.6682C13.1064 22.9913 15.0785 23.7961 17.2362 23.7961C18.3014 23.7961 19.321 23.5987 20.2625 23.2412V41.427H5.95479L11.6001 21.6682ZM49.2086 47.2161H2.63145V44.0584H49.2086V47.2161Z" fill="#056DB2"/>
<path d="M36.6713 29.8519C37.0139 29.5094 37.0139 28.954 36.6713 28.6115L34.3988 26.3391C34.0566 25.9965 33.5008 25.9965 33.1585 26.3391C32.8159 26.6816 32.8159 27.237 33.1585 27.5794L35.4309 29.8519C35.6022 30.0233 35.8266 30.1088 36.0511 30.1088C36.2756 30.109 36.5002 30.0233 36.6713 29.8519Z" fill="#1D2636"/>
<path d="M34.6391 30.2825H32.3667C31.8821 30.2825 31.4896 30.6752 31.4896 31.1596C31.4896 31.6439 31.8823 32.0367 32.3667 32.0367H34.6391C35.1236 32.0367 35.5162 31.6439 35.5162 31.1596C35.5162 30.6752 35.1236 30.2825 34.6391 30.2825Z" fill="#1D2636"/>
<path d="M44.733 26.3391C44.3907 25.9965 43.835 25.9965 43.4927 26.3391L41.2203 28.6115C40.8777 28.954 40.8777 29.5094 41.2203 29.8519C41.3915 30.0233 41.616 30.1088 41.8405 30.1088C42.0649 30.1088 42.2896 30.0231 42.4606 29.8519L44.733 27.5794C45.0756 27.237 45.0756 26.6816 44.733 26.3391Z" fill="#1D2636"/>
<path d="M42.3748 31.1596C42.3748 31.6441 42.7675 32.0367 43.2519 32.0367H45.5243C46.0089 32.0367 46.4014 31.6439 46.4014 31.1596C46.4014 30.6752 46.0087 30.2825 45.5243 30.2825H43.2519C42.7675 30.2825 42.3748 30.6752 42.3748 31.1596Z" fill="#1D2636"/>
</svg>
