<svg width="28" height="28" viewBox="0 0 28 28" fill="none" xmlns="http://www.w3.org/2000/svg">
<path d="M14 18.6666H14.0117" stroke="white" stroke-width="2.33333" stroke-linecap="round" stroke-linejoin="round"/>
<path d="M18.6665 18.6666H18.6782" stroke="white" stroke-width="2.33333" stroke-linecap="round" stroke-linejoin="round"/>
<path d="M3.5 22.1667C3.5 22.7855 3.74583 23.379 4.18342 23.8166C4.621 24.2542 5.21449 24.5 5.83333 24.5H22.1667C22.7855 24.5 23.379 24.2542 23.8166 23.8166C24.2542 23.379 24.5 22.7855 24.5 22.1667V9.91667C24.5001 9.81202 24.4721 9.70927 24.4188 9.61918C24.3656 9.5291 24.289 9.455 24.1973 9.40466C24.1056 9.35431 24.002 9.32958 23.8974 9.33304C23.7928 9.3365 23.691 9.36803 23.6028 9.42433L18.3972 12.7423C18.309 12.7986 18.2072 12.8302 18.1026 12.8336C17.998 12.8371 17.8944 12.8124 17.8027 12.762C17.711 12.7117 17.6344 12.6376 17.5812 12.5475C17.5279 12.4574 17.4999 12.3546 17.5 12.25V9.91667C17.5001 9.81202 17.4721 9.70927 17.4188 9.61918C17.3656 9.5291 17.289 9.455 17.1973 9.40466C17.1056 9.35431 17.002 9.32958 16.8974 9.33304C16.7928 9.3365 16.691 9.36803 16.6028 9.42433L11.3983 12.7423C11.3101 12.7989 11.2082 12.8307 11.1035 12.8343C10.9987 12.838 10.8949 12.8133 10.803 12.7629C10.711 12.7125 10.6344 12.6383 10.5811 12.548C10.5278 12.4578 10.4998 12.3548 10.5 12.25V5.83333C10.5 5.21449 10.2542 4.621 9.81658 4.18342C9.379 3.74583 8.7855 3.5 8.16667 3.5H5.83333C5.21449 3.5 4.621 3.74583 4.18342 4.18342C3.74583 4.621 3.5 5.21449 3.5 5.83333V22.1667Z" stroke="white" stroke-width="2.33333" stroke-linecap="round" stroke-linejoin="round"/>
<path d="M9.3335 18.6666H9.34516" stroke="white" stroke-width="2.33333" stroke-linecap="round" stroke-linejoin="round"/>
</svg>
