<svg width="27" height="27" viewBox="0 0 27 27" fill="none" xmlns="http://www.w3.org/2000/svg">
<path d="M21.4771 17.8477C21.4771 21.2701 21.4771 22.9813 20.4139 24.0445C19.3507 25.1077 17.6395 25.1077 14.2171 25.1077H11.7971C8.37471 25.1077 6.66352 25.1077 5.60031 24.0445C4.53711 22.9813 4.53711 21.2701 4.53711 17.8477V13.0077M4.53711 8.16772C4.53711 4.74531 4.53711 3.03412 5.60031 1.97092C6.66352 0.907715 8.37471 0.907715 11.7971 0.907715H14.2171C17.6395 0.907715 19.3507 0.907715 20.4139 1.97092C21.4771 3.03412 21.4771 4.74531 21.4771 8.16772V13.0077" stroke="white" stroke-width="1.815" stroke-linecap="round"/>
<path d="M4.53723 3.41943C3.35737 3.53548 2.5632 3.79778 1.97043 4.39053C0.907227 5.45373 0.907227 7.16494 0.907227 10.5874V15.4274C0.907227 18.8498 0.907227 20.5609 1.97043 21.6242C2.5632 22.2169 3.35737 22.4791 4.53723 22.5952" stroke="white" stroke-width="1.815"/>
<path d="M21.4775 3.41943C22.6574 3.53548 23.4515 3.79778 24.0443 4.39053C25.1075 5.45373 25.1075 7.16494 25.1075 10.5874V15.4274C25.1075 18.8498 25.1075 20.5609 24.0443 21.6242C23.4515 22.2169 22.6574 22.4791 21.4775 22.5952" stroke="white" stroke-width="1.815"/>
<path d="M9.37695 14.2163H16.637" stroke="white" stroke-width="1.815" stroke-linecap="round"/>
<path d="M9.37695 9.37646H16.637" stroke="white" stroke-width="1.815" stroke-linecap="round"/>
<path d="M9.37695 19.0581H13.007" stroke="white" stroke-width="1.815" stroke-linecap="round"/>
</svg>
