<svg width="51" height="51" viewBox="0 0 51 51" fill="none" xmlns="http://www.w3.org/2000/svg">
<path d="M25.48 33.9738H25.5012" stroke="#056DB2" stroke-width="4.24667" stroke-linecap="round" stroke-linejoin="round"/>
<path d="M33.9731 33.9738H33.9944" stroke="#056DB2" stroke-width="4.24667" stroke-linecap="round" stroke-linejoin="round"/>
<path d="M6.36975 40.3425C6.36975 41.4688 6.81717 42.5489 7.61357 43.3453C8.40998 44.1417 9.49013 44.5891 10.6164 44.5891H40.3431C41.4694 44.5891 42.5495 44.1417 43.3459 43.3453C44.1423 42.5489 44.5898 41.4688 44.5898 40.3425V18.0475C44.59 17.857 44.5389 17.67 44.442 17.5061C44.3451 17.3421 44.2058 17.2072 44.0388 17.1156C43.8719 17.024 43.6833 16.979 43.493 16.9853C43.3026 16.9916 43.1175 17.049 42.9569 17.1514L33.4826 23.1902C33.322 23.2927 33.1369 23.35 32.9465 23.3563C32.7562 23.3626 32.5676 23.3176 32.4007 23.226C32.2337 23.1344 32.0944 22.9995 31.9975 22.8356C31.9006 22.6716 31.8496 22.4846 31.8498 22.2941V18.0475C31.85 17.857 31.7989 17.67 31.702 17.5061C31.6051 17.3421 31.4658 17.2072 31.2988 17.1156C31.1319 17.024 30.9433 16.979 30.753 16.9853C30.5626 16.9916 30.3775 17.049 30.2169 17.1514L20.7447 23.1902C20.5841 23.2932 20.3988 23.3511 20.2081 23.3577C20.0174 23.3642 19.8285 23.3193 19.6612 23.2276C19.4939 23.1359 19.3544 23.0009 19.2573 22.8366C19.1603 22.6723 19.1093 22.4849 19.1098 22.2941V10.6158C19.1098 9.48952 18.6623 8.40936 17.8659 7.61296C17.0695 6.81656 15.9894 6.36914 14.8631 6.36914H10.6164C9.49013 6.36914 8.40998 6.81656 7.61357 7.61296C6.81717 8.40936 6.36975 9.48952 6.36975 10.6158V40.3425Z" stroke="#056DB2" stroke-width="4.24667" stroke-linecap="round" stroke-linejoin="round"/>
<path d="M16.9868 33.9738H17.0081" stroke="#056DB2" stroke-width="4.24667" stroke-linecap="round" stroke-linejoin="round"/>
</svg>
