<svg width="47" height="49" viewBox="0 0 47 49" fill="none" xmlns="http://www.w3.org/2000/svg">
<path d="M41.4029 44.9648V34.491H38.0561V24.9229L38.312 25.041C38.4498 25.1001 38.5679 25.1198 38.7254 25.1198C39.1389 25.1198 39.5326 24.8835 39.7098 24.4701L41.2061 20.8476C41.3242 20.5917 41.3242 20.2963 41.2061 20.0404C41.0879 19.7845 40.8911 19.5876 40.6351 19.4695L17.8173 10.0195C18.6442 8.42478 19.3923 6.8104 20.042 5.19603C20.2586 4.66447 20.0026 4.05415 19.4711 3.8179L10.4542 0.07728C9.92262 -0.139282 9.29262 0.116653 9.07606 0.628528C6.85137 5.8654 5.41419 11.6732 4.54794 18.9576C4.48887 19.4301 4.7645 19.8829 5.19762 20.0601L9.05637 21.6548C9.4895 21.832 10.0014 21.7138 10.277 21.3398C11.9504 19.2135 13.3876 17.2251 14.7067 15.2367L19.2742 17.1267L19.0576 18.682L18.3686 23.3873L15.2579 44.9648H0.00012207V48.6857H46.0886V44.9648H41.4029ZM25.5151 26.2223L21.7942 23.4463L24.7473 20.946L25.5151 26.2223ZM26.027 29.8251L27.1492 37.6804L21.0461 32.9948L26.027 29.8251ZM21.4595 18.052L23.5661 18.9379L21.0264 21.0838L21.4595 18.052ZM20.4161 25.3167L24.2748 28.191L19.5695 31.1835L20.4161 25.3167ZM19.097 34.4123L25.4364 39.2751L17.5811 44.9648L19.097 34.4123ZM21.5186 44.9648L27.5823 40.5745L28.2123 44.9648H21.5186ZM27.4445 23.407L27.0114 20.3554L35.9495 24.0567V34.5107H32.7207V44.9648H30.5551L27.4445 23.407Z" fill="#056DB2"/>
</svg>
