<svg width="45" height="38" viewBox="0 0 45 38" fill="none" xmlns="http://www.w3.org/2000/svg">
<path d="M5.86134 0V1.45532H8.03571V2.58723H9.7374V1.45532H11.9118V0H5.86134ZM5.08613 4.04255L2.30483 20.6979H11.0609V9.8234H7.32668V5.8617H11.0609V4.04255H5.08613ZM15.7878 9.21702V12.9362H23.1618V9.21702H15.7878ZM24.8634 9.21702V12.9362H32.2374V9.21702H24.8634ZM33.9391 9.21702V12.9362H41.313V9.21702H33.9391ZM15.7878 14.3915V18.1106H23.1618V14.3915H15.7878ZM24.8634 14.3915V18.1106H32.2374V14.3915H24.8634ZM33.9391 14.3915V18.1106H41.313V14.3915H33.9391ZM15.7878 19.566V23.2851H23.1618V19.566H15.7878ZM24.8634 19.566V23.2851H26.688L29.7132 20.6979H32.2374V19.566H24.8634ZM33.9391 19.566V20.6979H41.313V19.566H33.9391ZM0.871639 22.1532L3.15095 30.9255C5.5541 30.3272 8.29097 29.7532 10.3992 29.7532C12.687 29.7532 14.7668 30.4485 16.7521 31.0953C18.7374 31.7421 20.6282 32.3404 22.5 32.3404C24.3718 32.3404 26.2626 31.7421 28.2479 31.0953C30.0441 30.5132 31.9254 29.8826 33.9674 29.7694L29.7983 28.5809L30.3277 27.2064L33.75 28.1766V26.034H32.1429V24.5787H33.75V22.1532H30.4128L27.3876 24.7404H12.895L11.3824 22.1532H0.871639ZM35.4517 22.1532V24.5787H37.0588V26.034H35.4517V28.1766L38.874 27.2064L39.4034 28.5809L35.2437 29.7694C36.3876 29.826 37.6733 30.02 38.9685 30.2706C39.479 29.6966 39.9895 29.0336 40.4905 28.3302C41.8992 26.317 43.1565 23.9723 43.9695 22.1532H35.4517ZM10.3992 31.0468C8.11134 31.0468 5.08046 31.7179 2.54401 32.3728C1.59674 32.6153 0.723214 32.8579 0 33.0762V34.6123C0.790336 34.3698 1.85011 34.0706 3.03561 33.7634C5.50966 33.1247 8.52731 32.5021 10.3992 32.5021C12.271 32.5021 14.1618 33.1004 16.1471 33.7472C18.1324 34.394 20.2122 35.0894 22.5 35.0894C24.7878 35.0894 26.8676 34.394 28.8529 33.7472C30.8382 33.1004 32.729 32.5021 34.6008 32.5021C36.4727 32.5021 39.4884 33.1247 41.9653 33.7634C43.1471 34.0706 44.2059 34.3698 45 34.6123V33.0762C44.2721 32.866 43.4023 32.6153 42.4569 32.3728C39.9233 31.7179 36.8887 31.0468 34.6008 31.0468C32.313 31.0468 30.2332 31.7421 28.2479 32.3889C26.2626 33.0357 24.3718 33.634 22.5 33.634C20.6282 33.634 18.7374 33.0357 16.7521 32.3889C14.7668 31.7421 12.687 31.0468 10.3992 31.0468ZM10.3992 33.9574C8.11134 33.9574 5.08046 34.6285 2.54401 35.2834C1.59674 35.526 0.723214 35.7685 0 35.9868V37.523C0.790336 37.2804 1.85011 36.9813 3.03561 36.674C5.50966 36.0353 8.52731 35.4128 10.3992 35.4128C12.271 35.4128 14.1618 36.0111 16.1471 36.6579C18.1324 37.3047 20.2122 38 22.5 38C24.7878 38 26.8676 37.3047 28.8529 36.6579C30.8382 36.0111 32.729 35.4128 34.6008 35.4128C36.4727 35.4128 39.4884 36.0353 41.9653 36.674C43.1471 36.9813 44.2059 37.2804 45 37.523V35.9868C44.2721 35.7766 43.4023 35.526 42.4569 35.2834C39.9233 34.6285 36.8887 33.9574 34.6008 33.9574C32.313 33.9574 30.2332 34.6528 28.2479 35.2996C26.2626 35.9464 24.3718 36.5447 22.5 36.5447C20.6282 36.5447 18.7374 35.9464 16.7521 35.2996C14.7668 34.6528 12.687 33.9574 10.3992 33.9574Z" fill="white"/>
</svg>
