<svg width="33" height="37" viewBox="0 0 33 37" fill="none" xmlns="http://www.w3.org/2000/svg">
<path d="M31.6932 16.8317C31.6932 25.1773 25.6345 32.9939 17.3572 35.2808C16.794 35.4344 16.1794 35.4344 15.6162 35.2808C7.33894 32.9939 1.28027 25.1773 1.28027 16.8317V9.33947C1.28027 7.94 2.33844 6.3528 3.65257 5.82373L13.1586 1.93259C15.2919 1.06219 17.6983 1.06219 19.8317 1.93259L29.3378 5.82373C30.6349 6.3528 31.7102 7.94 31.7102 9.33947L31.6932 16.8317Z" stroke="white" stroke-width="2.56" stroke-linecap="round" stroke-linejoin="round"/>
<g opacity="0.8">
<path d="M16.4866 19.187C18.3718 19.187 19.8999 17.6589 19.8999 15.7737C19.8999 13.8886 18.3718 12.3604 16.4866 12.3604C14.6014 12.3604 13.0732 13.8886 13.0732 15.7737C13.0732 17.6589 14.6014 19.187 16.4866 19.187Z" stroke="white" stroke-width="2.56" stroke-miterlimit="10" stroke-linecap="round" stroke-linejoin="round"/>
<path d="M16.4863 19.1885V24.3085" stroke="white" stroke-width="2.56" stroke-miterlimit="10" stroke-linecap="round" stroke-linejoin="round"/>
</g>
</svg>
