<svg width="112" height="112" viewBox="0 0 112 112" fill="none" xmlns="http://www.w3.org/2000/svg">
<path d="M53.3337 101.333C43.9687 101.362 34.9351 97.8694 28.0245 91.5489C21.1139 85.2285 16.8311 76.5416 16.0256 67.2113C15.2201 57.8809 17.9507 48.5886 23.6758 41.1773C29.401 33.766 37.7024 28.7771 46.9337 27.2C77.3337 21.3334 85.3337 18.56 96.0004 5.33337C101.334 16 106.667 27.6267 106.667 48C106.667 77.3334 81.1737 101.333 53.3337 101.333Z" stroke="white" stroke-width="10.6667" stroke-linecap="round" stroke-linejoin="round"/>
<path d="M5.3335 106.667C5.3335 90.6667 15.2002 78.0801 32.4268 74.6667C45.3335 72.1067 58.6668 64.0001 64.0002 58.6667" stroke="white" stroke-width="10.6667" stroke-linecap="round" stroke-linejoin="round"/>
</svg>
